<?xml version="1.0" encoding="utf-8"?>
<!-- Generator: Adobe Illustrator 25.4.1, SVG Export Plug-In . SVG Version: 6.00 Build 0)  -->
<svg version="1.1" id="Capa_1" xmlns="http://www.w3.org/2000/svg" xmlns:xlink="http://www.w3.org/1999/xlink" x="0px" y="0px"
	 viewBox="0 0 595.276 841.89" style="enable-background:new 0 0 595.276 841.89;" xml:space="preserve">
<style type="text/css">
	.st0{fill:#23B4B5;}
	.st1{fill:#FCFCFC;}
	.st2{fill:#F9F9F9;}
	.st3{fill:#FBFBFB;}
	.st4{fill:#F2F2F2;}
	.st5{fill:#FDFDFD;}
	.st6{fill:#FAFAFA;}
	.st7{fill:#F6F6F6;}
	.st8{fill:#FEFEFE;}
	.st9{fill:#070707;}
	.st10{fill:#060606;}
	.st11{fill:#111111;}
	.st12{fill:#131313;}
	.st13{fill:#010101;}
	.st14{fill:#030303;}
	.st15{fill:#0A0A0A;}
	.st16{fill:#0C0C0C;}
	.st17{fill:#0D0D0D;}
</style>
<g>
	<path d="M307.508,512.793c-61.47,0-122.941-0.036-184.411,0.097c-3.423,0.007-4.108-0.671-4.096-4.092
		c0.148-44.11,0.136-88.221,0.015-132.331c-0.008-2.979,0.601-3.579,3.582-3.577c123.607,0.095,247.214,0.095,370.821,0
		c2.98-0.002,3.59,0.597,3.582,3.577c-0.121,44.277-0.121,88.554,0,132.83c0.008,2.979-0.6,3.584-3.582,3.578
		C431.448,512.766,369.478,512.793,307.508,512.793z"/>
	<path class="st0" d="M236.294,402.595c-1.344,29.891-2.661,59.783-4.05,89.672c-0.393,8.457-4.233,10.549-11.082,6.092
		c-28.912-18.815-57.809-37.653-86.684-56.523c-6.334-4.139-6.19-8.781,0.465-12.208c30.709-15.814,61.454-31.56,92.208-47.287
		c5.442-2.783,9.724-0.266,9.741,5.806c0.014,4.814-0.418,9.63-0.652,14.445C236.259,402.594,236.276,402.594,236.294,402.595z"/>
	<path class="st1" d="M349.617,410.694c0-4.43,0.093-8.862-0.038-13.287c-0.069-2.332,0.22-3.641,3.135-3.56
		c2.537,0.07,3.453,0.609,3.378,3.315c-0.193,6.975-0.133,13.961-0.023,20.94c0.033,2.087-0.486,2.724-2.722,2.91
		c-4.753,0.396-8.07-0.584-9.854-5.643c-1.388-3.936-3.817-7.506-6.574-11.072c0,4.542-0.14,9.091,0.056,13.625
		c0.106,2.457-0.691,3.153-3.088,3.061c-2.238-0.086-3.739-0.092-3.634-3.107c0.226-6.474-0.021-12.964,0.146-19.442
		c0.039-1.512-1.351-4.393,1.564-4.318c2.991,0.077,6.793-2.077,8.962,1.851c2.716,4.917,5.262,9.927,7.882,14.897
		C349.077,410.807,349.347,410.751,349.617,410.694z"/>
	<path class="st1" d="M424.239,402.272c0,6.154-0.151,10.779,0.058,15.387c0.12,2.646-0.741,3.272-3.336,3.367
		c-3.006,0.11-3.126-1.307-3.093-3.562c0.09-6.151-0.108-12.309,0.124-18.452c0.062-1.649-1.571-4.762,1.359-4.856
		c3.201-0.102,7.328-2.225,9.556,2.563c2.206,4.741,4.797,9.304,8.071,13.803c0-4.53,0.141-9.066-0.056-13.587
		c-0.108-2.468,0.714-3.132,3.096-3.053c2.257,0.075,3.736,0.12,3.633,3.116c-0.217,6.311,0.072,12.639-0.153,18.95
		c-0.058,1.63,1.61,4.824-1.547,4.765c-3.06-0.057-7.033,2.37-9.259-2.198C430.233,413.471,427.521,408.549,424.239,402.272z"/>
	<path class="st1" d="M388.331,406.713c3.79,1.887,4.693,5.117,3.541,8.792c-1.208,3.854-4.591,4.997-8.218,5.347
		c-11.942,1.15-11.945,1.123-11.945-10.941c0-2.158-0.185-4.335,0.044-6.469c0.338-3.146-1.522-8.512,1.059-9.023
		c5.444-1.078,11.701-1.853,16.881,1.75C393.18,398.594,392.54,402.844,388.331,406.713z"/>
	<path class="st1" d="M299.658,421.978c3.103-9.513,5.908-17.319,8.136-25.287c1.059-3.786,3.623-2.711,5.881-2.724
		c2.251-0.013,4.814-1.032,5.839,2.702c1.885,6.867,4.404,13.558,6.536,20.361c0.369,1.178,2.11,3.282,0.115,3.617
		c-2.224,0.374-5.801,1.983-6.968-1.29c-0.972-2.725-1.996-3.715-4.818-3.513c-2.766,0.198-5.05-0.247-6.266,3.595
		C307.003,422.944,303.108,419.703,299.658,421.978z"/>
	<path class="st1" d="M278.166,420.933c-3.723-0.6-8.226,2.155-9.2-4.029c-0.228-1.446-8.053-1.538-8.907-0.135
		c-0.74,1.216-1.122,2.647-1.737,3.946c-0.081,0.17-0.611,0.173-0.934,0.175c-1.983,0.015-3.966,0.008-6.563,0.008
		c2.789-8.598,5.4-16.868,8.168-25.085c1.274-3.783,4.552-1.35,6.867-1.826c1.705-0.351,3.461-0.417,4.241,2.146
		C272.591,404.323,275.373,412.424,278.166,420.933z"/>
	<path class="st2" d="M254.335,484.1c-0.001-0.997-0.22-2.056,0.038-2.982c1.01-3.625-2.833-9.396,2.219-10.766
		c10.461-2.837,19.511,1.119,22.441,8.213c2.545,6.162,0.531,13.198-4.869,16.774c-5.742,3.803-12.227,2.231-18.454,2.382
		c-1.72,0.042-1.351-1.565-1.361-2.65C254.315,491.415,254.336,487.758,254.335,484.1z"/>
	<path class="st1" d="M405.189,393.952c1.496,0.001,2.993,0.033,4.488-0.007c1.871-0.05,3.547-0.326,3.472,2.631
		c-0.064,2.53-0.622,3.738-3.329,3.331c-0.975-0.146-1.992,0.004-2.988-0.028c-1.496-0.049-2.529,0.207-2.504,2.132
		c0.026,2.014,1.31,1.742,2.628,2.058c1.973,0.472,5.212-1.984,5.615,2.553c0.345,3.883-2.05,3.3-4.348,3.316
		c-1.879,0.013-4.059-0.684-3.933,2.711c0.119,3.219,2.334,1.899,3.857,2.321c1.796,0.499,5.003-1.81,4.968,2.578
		c-0.019,2.369-0.336,3.385-3.171,3.46c-12.896,0.34-12.893,0.457-12.897-12.191c-0.001-2.325-0.001-4.651,0-6.976
		C397.047,393.944,397.047,393.944,405.189,393.952z"/>
	<path class="st3" d="M447.961,413.699c2.689,0.545,5.063,1.185,7.479,1.454c1.343,0.149,3.255,0.551,3.644-1.55
		c0.308-1.663-1.155-2.162-2.358-2.747c-1.64-0.796-3.337-1.514-4.866-2.489c-3.124-1.991-4.45-4.932-3.644-8.559
		c0.775-3.489,3.328-5.27,6.699-5.825c2.803-0.461,5.641-0.417,8.411,0.355c1.766,0.492,3.758,0.842,2.519,3.543
		c-0.824,1.796-1.289,3.975-4.091,2.23c-0.656-0.408-1.608-0.406-2.433-0.465c-1.45-0.103-3.31-0.597-3.748,1.364
		c-0.358,1.604,1.383,2.061,2.496,2.681c1.446,0.805,2.991,1.432,4.444,2.228c3.08,1.686,4.622,4.319,4.157,7.814
		c-0.457,3.436-2.564,5.789-5.827,6.804c-3.394,1.056-6.925,0.902-10.353,0.068C446.21,419.564,448.363,416.256,447.961,413.699z"/>
	<path class="st3" d="M453.618,444.495c0-3.369,0.074-6.032-0.025-8.689c-0.069-1.844,0.84-2.202,2.435-2.193
		c1.509,0.009,2.026,0.616,2.02,2.067c-0.033,8.317-0.097,16.635,0.026,24.949c0.041,2.805-2.617,2.833-3.13,2.085
		c-2.267-3.303-4.071-0.5-6.027,0.022c-4.448,1.187-8.99-0.573-11.258-4.394c-2.495-4.204-2.042-10.087,1.04-13.53
		c2.835-3.166,7.76-4.013,11.892-2.018C451.45,443.209,452.258,443.726,453.618,444.495z"/>
	<path class="st3" d="M418.014,495.145c0,2.864-0.006,5.338,0.003,7.811c0.005,1.381,0.035,2.593-1.978,2.645
		c-2.099,0.055-2.498-0.991-2.491-2.739c0.03-7.949,0.066-15.899-0.021-23.848c-0.031-2.802,2.853-2.677,3.218-2.05
		c2.047,3.514,3.77,0.585,5.682,0.144c4.358-1.006,8.254-0.235,11.042,3.628c2.742,3.8,2.508,10.479-0.53,13.914
		c-3.133,3.542-7.036,4.029-11.291,2.479C420.466,496.699,419.412,495.921,418.014,495.145z"/>
	<path class="st4" d="M254.313,448.832c-0.003-3.157,0.175-6.327-0.054-9.467c-0.225-3.094,0.506-4.616,4.028-4.336
		c3.801,0.302,7.644,0.055,11.468,0.076c1.593,0.009,3.416-0.472,3.319,2.29c-0.084,2.399-1.651,2.032-3.093,2.053
		c-2.161,0.032-4.363,0.281-6.476-0.036c-3.92-0.588-4.722,1.076-4.558,4.662c0.121,2.651,0.875,3.475,3.419,3.277
		c2.313-0.18,4.653-0.003,6.981-0.028c1.588-0.017,2.514,0.512,2.443,2.3c-0.06,1.512-0.841,2.044-2.219,2.013
		c-0.166-0.004-0.333,0.003-0.499,0.006c-3.147,0.066-7.158-1.021-9.206,0.511c-2.224,1.663-0.598,5.89-0.763,8.99
		c-0.09,1.691-0.985,1.749-2.258,1.756c-1.503,0.008-2.586-0.187-2.55-2.107C254.369,456.809,254.316,452.82,254.313,448.832z"/>
	<path class="st5" d="M280.967,407.471c-0.003-3.16,0.093-6.324-0.033-9.479c-0.102-2.56-0.087-4.27,3.506-4.187
		c3.191,0.074,3.947,0.995,3.759,3.969c-0.251,3.976,0.292,8.02-0.156,11.961c-0.516,4.536,1.136,5.789,5.443,5.357
		c1.977-0.198,5.383-1.669,5.222,2.89c-0.071,1.995-0.367,3.063-2.709,2.975c-4.156-0.156-8.327-0.18-12.48,0.006
		c-2.467,0.111-2.629-1.117-2.577-3.014C281.038,414.459,280.97,410.964,280.967,407.471z"/>
	<path class="st6" d="M299.237,488.973c-1.329,0.001-2.666-0.083-3.986,0.028c-1.056,0.089-2.612-0.676-3.057,0.674
		c-0.556,1.683,0.902,2.815,2.15,3.525c2.642,1.503,5.467,1.439,8.012-0.221c1.561-1.019,2.572-0.49,3.257,0.764
		c0.836,1.532-0.804,1.946-1.631,2.51c-3.922,2.672-10.55,2.11-13.916-1.08c-3.372-3.195-4.191-9.184-1.828-13.36
		c2.408-4.254,8.02-6.237,13.052-4.61c3.874,1.253,6.485,5.651,6.073,9.822c-0.151,1.53-0.735,1.999-2.143,1.962
		C303.226,488.933,301.231,488.972,299.237,488.973z"/>
	<path class="st6" d="M455.201,488.972c-1.164,0.001-2.352-0.148-3.484,0.04c-1.334,0.222-3.499-1.023-3.842,0.926
		c-0.344,1.952,1.493,3.242,3.305,3.817c2.282,0.725,4.643,0.706,6.7-0.699c1.394-0.952,2.498-0.865,3.297,0.539
		c1.032,1.812-0.797,2.21-1.737,2.796c-4.151,2.586-10.616,1.878-13.895-1.401c-3.053-3.054-3.808-8.9-1.672-12.955
		c2.23-4.233,7.265-6.282,12.424-5.056c4.278,1.017,7.437,6.047,6.773,10.322c-0.267,1.722-1.198,1.674-2.384,1.671
		C458.857,488.967,457.029,488.971,455.201,488.972z"/>
	<path class="st2" d="M383.277,454.019c2.128,5.046,5.118,6.342,9.899,4.405c1.365-0.553,2.643-1.893,3.67,0.11
		c1.269,2.474-1.274,2.654-2.469,3.271c-4.464,2.304-10.282,1.382-13.294-2.105c-3.271-3.786-3.541-8.116-1.439-12.511
		c2.033-4.251,6.576-6.159,11.828-5.274c4.594,0.775,8.034,5.711,7.496,10.295c-0.246,2.099-1.524,1.772-2.78,1.795
		c-2.158,0.04-4.318,0.013-6.476,0.014C387.625,454.02,385.539,454.019,383.277,454.019z"/>
	<path class="st6" d="M343.977,488.974c2.907,5.366,5.434,6.371,10.448,4.226c1.58-0.676,2.778-1.306,3.623,0.547
		c0.842,1.847-1.064,2.178-2.024,2.752c-4.051,2.423-10.248,1.744-13.478-1.321c-3.263-3.096-4.136-8.676-2.017-12.893
		c2.182-4.342,7.039-6.465,12.287-5.369c4.38,0.914,7.49,5.533,7.162,10.092c-0.147,2.043-1.257,1.964-2.615,1.964
		c-2.16,0-4.32,0.002-6.48,0.002C348.757,488.974,346.631,488.974,343.977,488.974z"/>
	<path class="st2" d="M310.007,441.799c6.383,0.055,10.809,4.309,10.864,10.443c0.056,6.297-4.581,10.737-11.156,10.684
		c-6.63-0.053-10.883-4.401-10.737-10.978C299.116,445.75,303.471,441.743,310.007,441.799z"/>
	<path class="st6" d="M393.511,497.882c-6.488-0.033-10.724-4.115-10.785-10.392c-0.064-6.573,4.181-10.748,10.914-10.737
		c6.426,0.01,10.773,4.159,10.874,10.377C404.618,493.515,400.115,497.915,393.511,497.882z"/>
	<path class="st6" d="M407.869,452.155c0.001-2.663,0.105-5.331-0.026-7.987c-0.16-3.249,3.31-2.625,3.507-2.115
		c1.366,3.544,3.011,1.161,4.553,0.493c6.203-2.686,11.731,0.553,12.019,7.169c0.152,3.488-0.015,6.99,0.053,10.483
		c0.033,1.669-0.061,2.794-2.305,2.734c-2.168-0.058-2.403-1.121-2.363-2.829c0.067-2.828-0.011-5.658,0.014-8.487
		c0.027-3.048-1.131-5.313-4.377-5.589c-3.496-0.297-5.85,1.584-6.355,4.986c-0.436,2.935-0.232,5.968-0.272,8.958
		c-0.02,1.514,0.216,2.926-2.154,2.956c-2.244,0.029-2.363-1.101-2.316-2.784C407.923,457.482,407.868,454.817,407.869,452.155z"/>
	<path class="st3" d="M329.669,452.04c-0.002-2.659,0.028-5.319-0.01-7.977c-0.046-3.23,3.559-2.337,3.645-1.995
		c1.022,4.087,2.854,1.174,4.203,0.559c6.127-2.794,11.751,0.237,12.234,6.859c0.265,3.638-0.031,7.313,0.115,10.963
		c0.084,2.11-0.909,2.429-2.696,2.454c-1.955,0.026-2.11-1.015-2.081-2.516c0.056-2.824-0.055-5.652,0.03-8.475
		c0.099-3.268-1.005-5.672-4.553-5.891c-3.8-0.235-5.931,2.029-6.357,5.589c-0.334,2.787-0.122,5.643-0.091,8.467
		c0.017,1.591,0.094,2.877-2.242,2.849c-2.333-0.027-2.217-1.358-2.202-2.911C329.69,457.359,329.671,454.7,329.669,452.04z"/>
	<path class="st7" d="M478.431,407.718c0.004,2.977-0.317,5.997,0.08,8.92c0.57,4.197-1.558,4.494-4.84,4.37
		c-2.25-0.085-2.745-0.854-2.714-2.924c0.108-7.109,0.198-14.226-0.026-21.33c-0.103-3.258,1.798-2.792,3.782-2.834
		c2.079-0.044,3.958-0.255,3.765,2.888C478.257,400.432,478.427,404.08,478.431,407.718z"/>
	<path class="st2" d="M323.632,493.232c1.777-5.113,3.332-9.106,4.532-13.203c0.894-3.053,2.547-3.936,5.568-2.774
		c-2.269,6.015-4.567,12.019-6.79,18.051c-0.635,1.722-1.475,2.624-3.555,2.603c-1.912-0.019-2.585-0.914-3.151-2.404
		c-2.282-6.013-4.603-12.012-7.012-18.282c3.037-0.902,4.896-0.534,5.831,2.859C320.193,484.202,321.845,488.18,323.632,493.232z"/>
	<path class="st1" d="M367.509,463.001c-4.079-0.084-6.237-1.739-6.506-5.339c-0.161-2.151-0.05-4.322-0.057-6.484
		c-0.003-0.998,0.406-2.588-0.057-2.903c-4.91-3.332,0.332-6.454,0.067-9.634c-0.144-1.733,0.956-1.779,2.231-1.771
		c1.283,0.008,2.428,0.126,2.192,1.811c-0.462,3.294,0.915,4.553,4.171,4.077c0.964-0.141,2.026-0.015,2.154,1.397
		c0.16,1.761-1.035,1.885-2.245,1.801c-7.099-0.498-3.429,4.859-3.917,7.635c-0.451,2.569-0.831,6.292,4.053,4.977
		c1.547-0.416,1.553,0.809,1.958,1.563c0.679,1.264-0.252,1.818-1.22,2.148C369.248,462.647,368.109,462.852,367.509,463.001z"/>
	<path class="st3" d="M471.844,487.039c-0.001-2.648,0.133-5.304-0.038-7.941c-0.179-2.757,2.622-2.864,3.049-2.134
		c2.11,3.605,3.858,0.915,5.814,0.146c1.022-0.401,2.493-0.909,2.903,0.638c0.284,1.073,0.832,2.817-1.201,3.18
		c-5.969,1.068-6.281,5.463-6.096,10.189c0.045,1.157,0.021,2.317,0.004,3.475c-0.024,1.586,0.476,3.308-2.281,3.289
		c-2.882-0.019-2.087-1.923-2.132-3.397C471.79,492.005,471.845,489.521,471.844,487.039z"/>
	<path class="st3" d="M280.934,451.949c-0.001-2.649,0.098-5.303-0.028-7.946c-0.137-2.874,2.842-2.591,3.184-1.984
		c2.092,3.715,3.872,0.587,5.788,0.094c1.026-0.264,2.475-0.925,2.822,0.803c0.198,0.987,0.702,2.646-0.896,2.927
		c-7.285,1.282-6.454,6.8-6.433,11.936c0.003,0.828-0.067,1.662,0.015,2.482c0.183,1.828-0.356,2.699-2.428,2.656
		c-1.959-0.041-2.059-1.069-2.036-2.525C280.967,457.579,280.936,454.764,280.934,451.949z"/>
	<path class="st8" d="M368.865,482.82c0-3.801,0.026-7.603-0.012-11.404c-0.016-1.59-0.064-2.876,2.232-2.852
		c2.333,0.024,2.181,1.422,2.179,2.945c-0.007,7.933-0.019,15.867,0.003,23.8c0.004,1.434-0.046,2.499-2.01,2.556
		c-2.085,0.061-2.462-0.853-2.422-2.65C368.927,491.085,368.864,486.952,368.865,482.82z"/>
	<path class="st9" d="M378.954,412.675c-0.044-1.58-0.338-3.169,2.084-2.972c1.965,0.16,3.827,0.493,3.776,2.898
		c-0.045,2.102-1.776,2.434-3.542,2.627C379.108,415.465,378.723,414.335,378.954,412.675z"/>
	<path class="st10" d="M380.677,404.268c-1.468,0.254-1.779-0.791-1.756-2.348c0.022-1.479,0.143-2.654,2.097-2.331
		c1.439,0.238,3.141,0.151,3.142,2.269C384.161,403.904,382.591,404.066,380.677,404.268z"/>
	<path class="st11" d="M313.424,399.748c1.919,3.294,2.147,6.601,3.007,9.757c-1.856,0.665-3.471,0.562-5.418,0.108
		C311.79,406.434,312.554,403.306,313.424,399.748z"/>
	<path class="st12" d="M264.491,399.124c0.944,3.339,1.638,5.538,2.164,7.776c0.229,0.976,1.288,2.41-0.37,2.909
		c-1.182,0.356-2.726,0.286-3.858-0.19c-1.082-0.454-0.293-1.748-0.082-2.622C262.883,404.766,263.542,402.564,264.491,399.124z"/>
	<path class="st13" d="M259.059,484.228c0.001-0.499-0.131-1.042,0.023-1.489c0.936-2.726-2.445-7.15,2.205-8.191
		c6.634-1.486,12.124,1.503,13.596,6.337c1.392,4.573-0.499,9.53-4.453,11.615c-3.109,1.639-6.485,1.139-9.79,1.17
		c-1.806,0.017-1.557-1.344-1.572-2.46C259.037,488.882,259.058,486.555,259.059,484.228z"/>
	<path class="st14" d="M446.967,445.669c3.85-0.067,6.465,2.564,6.554,6.596c0.088,3.985-2.484,6.794-6.279,6.858
		c-3.861,0.065-6.438-2.548-6.494-6.586C440.692,448.457,443.156,445.736,446.967,445.669z"/>
	<path class="st14" d="M424.264,493.973c-3.758-0.111-6.313-2.946-6.215-6.894c0.097-3.923,2.803-6.572,6.611-6.472
		c3.754,0.098,6.313,2.931,6.21,6.872C430.767,491.392,428.028,494.084,424.264,493.973z"/>
	<path class="st9" d="M297.795,486.161c-2.075-1.207-5.406,1.168-5.701-1.588c-0.322-3.003,2.753-4.206,5.633-4.163
		c2.681,0.04,5.533,1.184,5.154,4.064C302.475,487.567,299.175,484.515,297.795,486.161z"/>
	<path class="st15" d="M447.225,485.795c0.763-3.832,2.805-5.269,5.705-5.44c2.229-0.131,4.248,0.572,5.417,2.713
		c0.88,1.611,0.998,2.803-1.462,2.745C453.784,485.739,450.681,485.795,447.225,485.795z"/>
	<path class="st16" d="M383.1,450.517c0.547-3.5,2.686-5.046,5.799-5.113c3.14-0.067,5.369,1.345,5.862,5.113
		C390.947,450.517,387.243,450.517,383.1,450.517z"/>
	<path class="st17" d="M344.167,485.411c0.361-3.38,2.532-4.917,5.612-5.048c3.116-0.133,5.42,1.238,6.042,5.048
		C351.922,485.411,348.125,485.411,344.167,485.411z"/>
	<path class="st14" d="M309.964,445.744c3.829,0.049,6.224,2.677,6.18,6.784c-0.043,4.101-2.499,6.61-6.405,6.546
		c-3.807-0.063-6.367-2.807-6.32-6.773C303.466,448.412,306.177,445.696,309.964,445.744z"/>
	<path class="st14" d="M399.958,487.535c-0.072,3.978-2.729,6.627-6.553,6.532c-3.734-0.093-6.41-2.999-6.315-6.86
		c0.095-3.887,2.854-6.598,6.637-6.524C397.506,480.757,400.03,483.533,399.958,487.535z"/>
</g>
</svg>
